<?xml version="1.0" encoding="utf-8"?>
<svg width="24px" height="24px" viewBox="0 0 24 24" version="1.1" xmlns:xlink="http://www.w3.org/1999/xlink" xmlns="http://www.w3.org/2000/svg">
  <defs>
    <path d="M24 0L24 0L24 24L0 24L0 0L24 0Z" id="path_1" />
    <clipPath id="clip_1">
      <use xlink:href="#path_1" clip-rule="evenodd" fill-rule="evenodd" />
    </clipPath>
  </defs>
  <g id="cart-minus" clip-path="url(#clip_1)">
    <path d="M24 0L24 0L24 24L0 24L0 0L24 0Z" id="cart-minus" fill="none" stroke="none" />
    <path d="M7 18C5.9 18 5 18.9 5 20C5 21.1 5.9 22 7 22C8.1 22 9 21.1 9 20C9 18.9 8.1 18 7 18M17 18C15.9 18 15 18.9 15 20C15 21.1 15.9 22 17 22C18.1 22 19 21.1 19 20C19 18.9 18.1 18 17 18M7.2 14.8L7.2 14.7L8.1 13L15.5 13C16.2 13 16.9 12.6 17.2 12L21.1 5L19.4 4L15.5 11L8.5 11L4.3 2L1 2L1 4L3 4L6.6 11.6L5.2 14C5.1 14.3 5 14.6 5 15C5 16.1 5.9 17 7 17L19 17L19 15L7.4 15C7.3 15 7.2 14.9 7.2 14.8L7.2 14.8Z" id="Shape" fill="#ffffff" fill-rule="evenodd" stroke="none" />
  </g>
</svg>